<?xml version="1.0" standalone="no"?>
<!DOCTYPE svg PUBLIC "-//W3C//DTD SVG 20010904//EN"
 "http://www.w3.org/TR/2001/REC-SVG-20010904/DTD/svg10.dtd">
<svg version="1.0" xmlns="http://www.w3.org/2000/svg"
 width="300.000000pt" height="300.000000pt" viewBox="0 0 300.000000 300.000000"
 preserveAspectRatio="xMidYMid meet">
<metadata>
Created by potrace 1.14, written by Peter Selinger 2001-2017
</metadata>
<g transform="translate(0.000000,300.000000) scale(0.100000,-0.100000)"
fill="#000000" stroke="none">
<path d="M0 1500 l0 -1500 1500 0 1500 0 0 1500 0 1500 -1500 0 -1500 0 0
-1500z m1742 946 c192 -49 394 -179 517 -333 79 -98 163 -269 193 -388 31
-127 31 -333 0 -458 -89 -359 -363 -636 -721 -728 -111 -29 -284 -35 -401 -15
-52 9 -99 21 -104 26 -5 5 28 142 86 345 52 184 93 335 91 335 -2 0 -25 -7
-51 -15 -38 -12 -92 -15 -272 -13 l-226 3 121 425 c66 234 124 431 128 438 6
8 40 12 113 12 92 0 104 -2 104 -17 0 -10 -40 -159 -89 -331 -71 -254 -86
-315 -74 -319 27 -10 143 5 169 22 35 23 57 79 49 123 -6 34 -46 84 -74 93
-10 4 -8 24 15 99 15 52 30 98 34 103 3 4 29 -4 57 -18 56 -28 124 -96 149
-149 l16 -33 124 -5 c113 -5 128 -7 188 -37 200 -98 251 -356 102 -518 -69
-76 -131 -105 -231 -110 -44 -2 -86 0 -93 5 -10 7 -7 28 14 105 27 94 28 97
57 97 78 0 135 63 124 140 -9 67 -65 110 -147 110 -25 0 -27 -8 -119 -342 -51
-189 -96 -349 -99 -357 -7 -22 128 -7 224 24 252 80 445 279 516 530 31 113
31 288 0 399 -39 138 -94 229 -202 337 -81 82 -109 102 -190 142 -117 58 -187
77 -311 84 -166 10 -321 -33 -464 -128 -74 -50 -185 -160 -218 -218 l-18 -31
65 0 c46 0 66 -4 66 -12 0 -7 -13 -53 -28 -103 l-28 -90 -192 -3 c-106 -1
-192 1 -192 5 0 5 9 42 21 83 85 309 334 568 642 670 174 57 377 63 559 16z"/>
</g>
</svg>
